# xmcd CD database file generated by Grip 3.2.0
# 
# Track frame offsets:
#       150
#       20873
#       48682
#       67617
#       81158
#       104740
#       125144
#       149318
#       168623
# 
# Disc length: 2549 seconds
# 
# Revision: 1
# Processed by: cddbd v1.5.2PL0 Copyright (c) Steve Scherf et al.
# Submitted via: Grip 3.2.0
# 
DISCID=8609f309
DTITLE=The Belt - Changes
DYEAR=2003
DGENRE=Rock
TTITLE0=My Driver's Number
TTITLE1=Drenched
TTITLE2=Hypocrite (What Are You Getting At?)
TTITLE3=Towards The Sun
TTITLE4=Lonesome Fears
TTITLE5=Realize It
TTITLE6=Guilty Conscience
TTITLE7=On Till I Die
TTITLE8=Lead Acid Battery
EXTD=
EXTT0=
EXTT1=
EXTT2=
EXTT3=
EXTT4=
EXTT5=
EXTT6=
EXTT7=
EXTT8=
PLAYORDER=
